<?xml version="1.0" standalone="no"?>
<!DOCTYPE svg PUBLIC "-//W3C//DTD SVG 20010904//EN"
 "http://www.w3.org/TR/2001/REC-SVG-20010904/DTD/svg10.dtd">
<svg version="1.0" xmlns="http://www.w3.org/2000/svg"
 width="700.000000pt" height="700.000000pt" viewBox="0 0 700.000000 700.000000"
 preserveAspectRatio="xMidYMid meet">
<metadata>
Created by potrace 1.14, written by Peter Selinger 2001-2017
</metadata>
<g transform="translate(0.000000,700.000000) scale(0.100000,-0.100000)"
fill="#000000" stroke="none">
<path d="M2664 5766 l-34 -34 0 -278 c0 -259 1 -281 20 -311 18 -31 66 -53
113 -53 10 0 31 -13 46 -28 l28 -28 8 -440 7 -441 -593 -1049 c-326 -577 -608
-1082 -626 -1124 -190 -440 80 -969 556 -1089 84 -21 90 -21 1455 -21 1480 0
1430 -1 1566 53 105 43 172 89 270 187 76 76 104 113 142 185 113 217 128 444
44 665 -20 53 -254 476 -629 1138 l-596 1054 6 431 c5 345 9 438 20 460 15 31
66 57 108 57 16 0 38 12 56 29 l29 29 0 286 0 286 -29 32 -29 33 -952 3 -952
2 -34 -34z m1099 -2013 c93 -29 135 -83 358 -463 111 -190 349 -595 530 -901
206 -349 332 -573 340 -603 16 -65 6 -164 -22 -223 -30 -61 -97 -129 -157
-156 l-47 -22 -1120 0 -1120 0 -43 23 c-67 36 -129 98 -159 160 -22 46 -28 70
-28 132 0 43 6 90 14 110 8 19 127 226 265 460 137 234 374 637 526 895 167
283 293 487 318 512 91 94 207 120 345 76z"/>
</g>
</svg>
